{"title":"Masters of Sex S01E09 HDTV 480p x264 AAC E-Subs [GWC].mp4","uid":9246926,"size":172578413,"categoryP":"video","categoryS":"tv_shows","magnet":"?xt=urn:btih:88d7bdc6424e350605ab46ae7a61695e60ad7597&amp;dn=Masters+of+Sex+S01E09+HDTV+480p+x264+AAC+E-Subs+%5BGWC%5D.mp4&amp;tr=udp%3A%2F%2Ftracker.openbittorrent.com%3A80&amp;tr=udp%3A%2F%2Fopen.demonii.com%3A1337&amp;tr=udp%3A%2F%2Ftracker.coppersurfer.tk%3A6969&amp;tr=udp%3A%2F%2Fexodus.desync.com%3A6969","seeders":1,"leechers":0,"uploader":"canc232","files":1,"time":1385391792,"description":"Masters of Sex S01E09 HDTV 480p x264 AAC E-Subs [GWC]\n\n\n\nSCREENS :\n &lt;a href=&quot;\nhttp://s20.postimg.org/8znzdyccd/Mstrso_SX_1.jpg&quot; rel=&quot;nofollow&quot; target=&quot;_NEW&quot;&gt;\nhttp://s20.postimg.org/8znzdyccd/Mstrso_SX_1.jpg&lt;/a&gt; &lt;a href=&quot;\nhttp://s20.postimg.org/90xx7de65/Mstrso_SX_2.jpg&quot; rel=&quot;nofollow&quot; target=&quot;_NEW&quot;&gt;\nhttp://s20.postimg.org/90xx7de65/Mstrso_SX_2.jpg&lt;/a&gt; &lt;a href=&quot;\nhttp://s20.postimg.org/ubvhbmwal/Mstrso_SX_3.jpg&quot; rel=&quot;nofollow&quot; target=&quot;_NEW&quot;&gt;\nhttp://s20.postimg.org/ubvhbmwal/Mstrso_SX_3.jpg&lt;/a&gt;\n\n\n\nMEDIA INFO :\n\nGeneral \nFormat : MPEG-4 \nFile size : 165 MiB \nDuration : 56mn 59s \nOverall bit rate mode : Variable \nOverall bit rate : 404 Kbps\n\nVideo \nFormat : AVC\nFormat profile : &lt;a class=&quot;__cf_email__&quot; href=&quot;/cdn-cgi/l/email-protection&quot; data-cfemail=&quot;f8b0919f90b8b4cbd6c8&quot;&gt;[email&amp;#160;protected]&lt;/a&gt;&lt;script cf-hash='f9e31' type=&quot;text/javascript&quot;&gt;\n/* &lt;![CDATA[ */!function(){try{var t=&quot;currentScript&quot;in document?document.currentScript:function(){for(var t=document.getElementsByTagName(&quot;script&quot;),e=t.length;e--;)if(t[e].getAttribute(&quot;cf-hash&quot;))return t[e]}();if(t&amp;&amp;t.previousSibling){var e,r,n,i,c=t.previousSibling,a=c.getAttribute(&quot;data-cfemail&quot;);if(a){for(e=&quot;&quot;,r=parseInt(a.substr(0,2),16),n=2;a.length-n;n+=2)i=parseInt(a.substr(n,2),16)^r,e+=String.fromCharCode(i);e=document.createTextNode(e),c.parentNode.replaceChild(e,c)}}}catch(u){}}();/* ]]&gt; */&lt;/script&gt; \nFormat settings, CABAC : Yes \nFormat settings, ReFrames : 4 frames\nDuration : 56mn 59s \nBit rate : 340 Kbps\nWidth : 720 pixels \nHeight : 404 pixels \nDisplay aspect ratio : 16:9\nFrame rate : 23.976 fps \nStream size : 139 MiB (84%) \nTitle : Masters of Sex S01E09 HDTV 480p x264 AAC E-Subs [GWC] \nWriting library : x264 core\n\nAudio\nFormat : AAC \nFormat profile : HE-AAC / LC \nDuration : 56mn 59s \nBit rate mode : Variable \nChannel(s) : 2 channels \nSampling rate : 48.0 KHz / 24.0 KHz \nStream size : 24.5 MiB (15%) \nLanguage : English \n\nText \nFormat : Timed Text \nDuration : 56mn 17s \nTitle : English Subtitle by Elderfel \nLanguage : English\n","torrent":{"xt":"urn:btih:88d7bdc6424e350605ab46ae7a61695e60ad7597","amp;dn":"Masters+of+Sex+S01E09+HDTV+480p+x264+AAC+E-Subs+%5BGWC%5D.mp4","amp;tr":["udp%3A%2F%2Ftracker.openbittorrent.com%3A80","udp%3A%2F%2Fopen.demonii.com%3A1337","udp%3A%2F%2Ftracker.coppersurfer.tk%3A6969","udp%3A%2F%2Fexodus.desync.com%3A6969"],"infoHash":"88d7bdc6424e350605ab46ae7a61695e60ad7597","infoHashBuffer":{"type":"Buffer","data":[136,215,189,198,66,78,53,6,5,171,70,174,122,97,105,94,96,173,117,151]},"announce":[],"urlList":[]}}